<?xml version="1.0" encoding="UTF-8"?>
<svg id="Warstwa_1" xmlns="http://www.w3.org/2000/svg" viewBox="0 0 259.5 213.43">
  <defs>
    <style>
      .cls-1 {
        letter-spacing: 0em;
      }

      .cls-2 {
        fill: #262262;
        font-family: MyriadPro-Regular, 'Myriad Pro';
        font-size: 54.39px;
        stroke: #262262;
        stroke-miterlimit: 10;
        stroke-width: 3px;
      }

      .cls-3 {
        letter-spacing: .02em;
      }

      .cls-4 {
        fill: #313974;
      }

      .cls-5 {
        fill: #f47521;
      }
    </style>
  </defs>
  <path class="cls-4" d="M239.02,0l-27.34,7.44c8.99,13.19,16.48,32.48,16.48,52.78,0,30.11-17.6,47.71-43.06,47.71-23.6,0-37.07-12.18-50.18-42.97-8.66-22.08-19.74-39.09-34.71-49.32l-13.92,28.37c8.21,7.34,14.86,19.09,22.04,35.84,16.48,38.57,37.07,58.19,74.15,58.19,38.95,0,72.65-26.05,72.65-79.85,0-21.99-7.12-46.01-16.11-58.19Z"/>
  <text class="cls-2" transform="translate(5.68 198.33) scale(.83 1)"><tspan x="0" y="0">ZS</tspan><tspan class="cls-3" x="56.89" y="0">E</tspan><tspan class="cls-1" x="84.52" y="0">T LESZNO</tspan></text>
  <path class="cls-5" d="M61.6,60.47c-19.43-7.23-20.87-11.21-20.78-16.03.09-4.6,4.61-9.89,17.09-9.71,9.79.15,17.19,2.96,21.67,5.29l3.32,1.72,13.53-27.56-3.85-2.07c-4.98-2.69-15.97-7.23-33.55-7.51C28.89,4.12,6.68,21.39,6.21,45.66c-.57,29.46,30.24,40.09,40.53,43.61,17.97,6.66,19.35,11.5,19.25,16.7-.22,11.63-15.32,12.31-19.94,12.22-9.18-.15-19.21-2.9-26.85-7.36l-8.9-5.2L0,134.99l5.72,3.62c8.69,5.5,24.57,9.49,38.62,9.71.53,0,1.04.01,1.56.01,37.33,0,54.48-21.48,54.9-43.03.51-26.65-20.67-37.96-39.19-44.83Z"/>
</svg>